<svg width="75" height="75" viewBox="0 0 75 75" fill="none" xmlns="http://www.w3.org/2000/svg">
<path d="M65.625 14.0625H9.375C8.1318 14.0625 6.93951 14.5564 6.06044 15.4354C5.18136 16.3145 4.6875 17.5068 4.6875 18.75V56.25C4.6875 57.4932 5.18136 58.6855 6.06044 59.5646C6.93951 60.4436 8.1318 60.9375 9.375 60.9375H65.625C66.8682 60.9375 68.0605 60.4436 68.9396 59.5646C69.8186 58.6855 70.3125 57.4932 70.3125 56.25V18.75C70.3125 17.5068 69.8186 16.3145 68.9396 15.4354C68.0605 14.5564 66.8682 14.0625 65.625 14.0625V14.0625ZM60.4687 18.75L37.5 34.6406L14.5312 18.75H60.4687ZM9.375 56.25V20.8828L36.1641 39.4219C36.5564 39.694 37.0225 39.8399 37.5 39.8399C37.9775 39.8399 38.4436 39.694 38.8359 39.4219L65.625 20.8828V56.25H9.375Z" fill="#003F5A"/>
</svg>
