<svg width="85" height="86" viewBox="0 0 85 86" fill="none" xmlns="http://www.w3.org/2000/svg">
<path d="M53.1252 78.5352H31.8752C14.1668 78.5352 7.0835 71.4519 7.0835 53.7436V32.4936C7.0835 14.7852 14.1668 7.7019 31.8752 7.7019H53.1252C70.8335 7.7019 77.9168 14.7852 77.9168 32.4936V53.7436C77.9168 71.4519 70.8335 78.5352 53.1252 78.5352Z" fill="#003F5A"/>
<path d="M49.5833 33.5566V43.8275H58.7917C59.5 43.8275 59.8542 44.5358 59.8542 45.2441L58.4375 51.9733C58.4375 52.3275 57.7292 52.6816 57.375 52.6816H49.5833V78.5358H38.9583V53.0358H32.9375C32.2292 53.0358 31.875 52.6816 31.875 51.9733V45.2441C31.875 44.5358 32.2292 44.1816 32.9375 44.1816H38.9583V32.4941C38.9583 26.4733 43.5625 21.8691 49.5833 21.8691H59.1458C59.8542 21.8691 60.2083 22.2233 60.2083 22.9316V31.4316C60.2083 32.14 59.8542 32.4941 59.1458 32.4941H50.6458C49.9375 32.4941 49.5833 32.8483 49.5833 33.5566Z" fill="#D9D9D9"/>
</svg>
