<svg width="85" height="86" viewBox="0 0 85 86" fill="none" xmlns="http://www.w3.org/2000/svg">
<path d="M31.8752 78.5357H53.1252C70.8335 78.5357 77.9168 71.4524 77.9168 53.7441V32.4941C77.9168 14.7857 70.8335 7.70239 53.1252 7.70239H31.8752C14.1668 7.70239 7.0835 14.7857 7.0835 32.4941V53.7441C7.0835 71.4524 14.1668 78.5357 31.8752 78.5357Z" stroke="#003F5A" stroke-width="5" stroke-linecap="round" stroke-linejoin="round"/>
<path d="M42.4998 55.5151C44.1277 55.5151 45.7396 55.1944 47.2435 54.5715C48.7474 53.9485 50.114 53.0355 51.265 51.8844C52.4161 50.7333 53.3291 49.3668 53.9521 47.8629C54.575 46.359 54.8957 44.7471 54.8957 43.1192C54.8957 41.4914 54.575 39.8795 53.9521 38.3755C53.3291 36.8716 52.4161 35.5051 51.265 34.354C50.114 33.203 48.7474 32.2899 47.2435 31.667C45.7396 31.044 44.1277 30.7234 42.4998 30.7234C39.2123 30.7234 36.0593 32.0294 33.7347 34.354C31.41 36.6787 30.104 39.8316 30.104 43.1192C30.104 46.4068 31.41 49.5597 33.7347 51.8844C36.0593 54.2091 39.2123 55.5151 42.4998 55.5151V55.5151Z" stroke="#003F5A" stroke-width="5" stroke-linecap="round" stroke-linejoin="round"/>
<path d="M62.4609 25.4109H62.5029" stroke="#003F5A" stroke-width="5" stroke-linecap="round" stroke-linejoin="round"/>
</svg>
