<svg width="75" height="75" viewBox="0 0 75 75" fill="none" xmlns="http://www.w3.org/2000/svg">
<path d="M37.5 40.625C42.6777 40.625 46.875 36.4277 46.875 31.25C46.875 26.0723 42.6777 21.875 37.5 21.875C32.3223 21.875 28.125 26.0723 28.125 31.25C28.125 36.4277 32.3223 40.625 37.5 40.625Z" stroke="#003F5A" stroke-width="5" stroke-linecap="round" stroke-linejoin="round"/>
<path d="M37.5 6.25C30.8696 6.25 24.5107 8.88392 19.8223 13.5723C15.1339 18.2607 12.5 24.6196 12.5 31.25C12.5 37.1625 13.7562 41.0312 17.1875 45.3125L37.5 68.75L57.8125 45.3125C61.2438 41.0312 62.5 37.1625 62.5 31.25C62.5 24.6196 59.8661 18.2607 55.1777 13.5723C50.4893 8.88392 44.1304 6.25 37.5 6.25V6.25Z" stroke="#003F5A" stroke-width="5" stroke-linecap="round" stroke-linejoin="round"/>
</svg>
