<svg width="90" height="79" viewBox="0 0 90 79" fill="none" xmlns="http://www.w3.org/2000/svg">
<path fill-rule="evenodd" clip-rule="evenodd" d="M30.4171 55.1539C18.634 56.2828 11.9788 50.9487 5.77303 39.8714C2.50868 34.0444 -2.22637 38.9989 1.17763 44.3428C8.3784 55.6617 18.6602 58.1956 30.4171 55.1539Z" fill="#718355"/>
<path fill-rule="evenodd" clip-rule="evenodd" d="M23.2206 53.5023C12.69 44.6582 10.5866 34.6901 12.5679 20.3098C13.6109 12.7524 6.47557 12.9397 5.85586 20.2161C4.54663 35.6218 11.4725 46.2702 23.2206 53.5023Z" fill="#87986A"/>
<path fill-rule="evenodd" clip-rule="evenodd" d="M17.4993 44.4662C14.3485 28.3703 18.9831 18.2987 29.8541 7.90173C35.5754 2.42963 29.4832 -3.2939 24.2986 2.28173C13.3316 14.0936 12.3017 28.7204 17.4993 44.4662Z" fill="#97A97C"/>
<path fill-rule="evenodd" clip-rule="evenodd" d="M19.1533 32.7384C25.7518 16.0756 35.7631 10.5985 51.5 9.53863C59.7744 8.98156 57.7102 -0.690748 49.8461 0.369164C33.197 2.61716 23.7356 14.8431 19.1533 32.7384Z" fill="#B5C99A"/>
<path fill-rule="evenodd" clip-rule="evenodd" d="M24.1851 26.965C39.2107 16.011 51.4258 17.8005 66.6085 27.6158C74.5948 32.7773 77.8373 22.3705 69.9645 17.9583C53.298 8.62119 37.9931 13.4869 24.1851 26.965Z" fill="#CFE1B9"/>
<path fill-rule="evenodd" clip-rule="evenodd" d="M66.1094 58.2902C66.0945 53.7985 66.0814 51.0473 66.0665 50.0498C67.8169 51.0623 69.1549 52.7017 69.7968 54.6687C68.2162 56.3363 66.9771 57.5491 66.1094 58.2902ZM62.4799 63.2236L61.2408 61.9977C60.9852 61.7413 60.8844 61.5691 60.9142 61.4849C61.4255 61.498 62.8643 61.4849 65.2118 61.4699C66.7495 61.4699 68.0315 61.4849 69.041 61.513C68.0166 63.2236 66.3949 64.5355 64.4579 65.1625C64.2881 65.0072 64.0605 64.7788 63.7749 64.4794C63.4764 64.1799 63.049 63.7514 62.4799 63.2105V63.2236ZM58.1375 64.6778V59.6171H58.2663L60.5 61.8835C61.4554 62.853 62.1944 63.5941 62.7206 64.1219C63.2618 64.6647 63.6462 65.0633 63.8738 65.3347C63.2338 65.4919 62.5788 65.5761 61.8958 65.5761C60.5429 65.5761 59.2628 65.2486 58.1375 64.6778ZM54.5658 59.1455C56.1875 57.521 57.2119 56.5365 57.6673 56.1941C57.6542 56.7218 57.6673 58.1629 57.6822 60.5286C57.6971 62.0969 57.6822 63.3958 57.6393 64.4083C55.9169 63.3658 54.5938 61.7263 53.9817 59.7743C54.1236 59.6171 54.3232 59.4019 54.5789 59.1605L54.5658 59.1455ZM56.9413 53.4579C58.1244 53.4429 59.0351 53.471 59.6752 53.557C59.6322 53.5701 59.6192 53.5851 59.6192 53.6001L54.2654 58.9602C54.2225 59.0032 54.1665 59.0613 54.0956 59.1455L53.9108 59.3607C53.8959 59.3888 53.8679 59.4019 53.853 59.4169C53.6682 58.7319 53.5693 58.0057 53.5693 57.2646C53.5693 55.8946 53.8959 54.6126 54.48 53.471C54.9633 53.471 55.775 53.471 56.9134 53.4579H56.9413ZM62.9632 53.0012H54.7786C55.803 51.2887 57.4396 49.9637 59.3766 49.3498C60.0446 50.0198 61.2408 51.2326 62.9781 53.0012H62.9632ZM65.6392 55.0262C65.1409 54.5976 63.3327 52.8159 60.2014 49.6642L60.0017 49.4789C59.9028 49.4078 59.8319 49.3498 59.789 49.3086C59.761 49.2787 59.733 49.2656 59.7181 49.2356C60.416 49.0504 61.1419 48.9512 61.8958 48.9512C63.2487 48.9512 64.5158 49.2787 65.6392 49.8495C65.6392 50.3923 65.6392 51.1615 65.6392 52.1309C65.6392 53.4859 65.6392 54.4554 65.6392 55.0393V55.0262ZM64.5998 60.4144C67.035 57.9907 68.4439 56.6226 68.8283 56.2951C68.9272 56.0799 69.1269 55.8385 69.3975 55.5671C69.6251 55.3668 69.7819 55.1965 69.9106 55.0674C70.0954 55.7673 70.1943 56.4935 70.1943 57.2496C70.1943 58.6046 69.8677 59.8735 69.2986 61.0133H64.1314C64.1164 60.886 64.1743 60.7719 64.2881 60.6727L64.443 60.5286C64.5158 60.4724 64.5587 60.4294 64.5867 60.4013L64.5998 60.4144Z" fill="#997B66"/>
<path d="M33.9157 38.1064H41.9762C43.2023 38.1064 44.3374 37.4465 44.9505 36.3737L45.309 35.7503C53.1746 35.132 60.1337 39.9325 60.1337 39.9325C50.9225 39.9325 43.4517 47.4631 43.4517 56.7549C43.4517 56.7549 32.3155 65.6128 35.6301 78.3621H33.9157C32.0194 78.3621 30.479 76.8113 30.479 74.8968V41.5716C30.479 39.6571 32.0194 38.1064 33.9157 38.1064Z" fill="#797D62"/>
<path d="M43.4517 56.7549C43.4517 66.0441 50.9225 73.5772 60.1338 73.5772C60.1338 73.5772 62.0872 76.0736 65.4771 78.3621H41.2593C35.6977 68.1845 43.4517 56.7549 43.4517 56.7549Z" fill="#9B9B7A"/>
<path d="M47.9561 56.7549C47.9561 49.9724 53.4085 44.4732 60.1338 44.4732C66.8617 44.4732 72.3142 49.9724 72.3142 56.7549C72.3142 63.5373 66.8617 69.034 60.1338 69.034C53.4085 69.034 47.9561 63.5373 47.9561 56.7549ZM46.5066 56.7549C46.5066 64.3452 52.6085 70.4964 60.1338 70.4964C67.6618 70.4964 73.7637 64.3452 73.7637 56.7549C73.7637 49.1646 67.6618 43.0107 60.1338 43.0107C52.6085 43.0107 46.5066 49.1646 46.5066 56.7549Z" fill="#FFCB69"/>
<path d="M76.8185 56.755C76.8185 56.755 86.2583 49.2452 85.1699 38.1064H86.3544C88.2507 38.1064 89.7911 39.6572 89.7911 41.5717V74.8969C89.7911 76.8114 88.2507 78.3622 86.3544 78.3622H73.0571C65.7603 76.7231 60.1338 73.5773 60.1338 73.5773C69.3476 73.5773 76.8185 66.0441 76.8185 56.755Z" fill="#D9AE94"/>
<path d="M50.3095 30.4795H69.9607C71.1868 30.4795 72.322 31.1393 72.935 32.2121L75.3197 36.3736C75.9327 37.4464 77.0653 38.1062 78.294 38.1062H80.2656C83.1542 47.4161 76.8185 56.7547 76.8185 56.7547C76.8185 47.4629 69.3477 39.9323 60.1338 39.9323C60.1338 39.9323 55.2555 33.6954 47.5378 31.9004C48.1795 31.0146 49.2081 30.4795 50.3095 30.4795Z" fill="#F1DCA7"/>
<path d="M62.1053 66.8594C56.7204 66.8594 52.3564 62.4564 52.3564 57.0299C52.3564 51.5982 56.7204 47.1978 62.1053 47.1978C63.2899 47.1978 64.4276 47.4108 65.4771 47.8005C63.9938 46.9822 62.2898 46.5146 60.4766 46.5146C54.7202 46.5146 50.0522 51.2216 50.0522 57.0299C50.0522 62.8331 54.7202 67.54 60.4766 67.54C62.2898 67.54 63.9938 67.075 65.4771 66.2542C64.4276 66.6464 63.2899 66.8594 62.1053 66.8594Z" fill="#D08C60"/>
</svg>
