<svg xmlns="http://www.w3.org/2000/svg" data-name="Layer 1" viewBox="0 0 64 64"><path d="M3.68 7.6L3.35 9.49a1 1 0 0 0 .4 1 1 1 0 0 0 1 .07l1.7-.89 1.7.89a.93.93 0 0 0 .46.12 1 1 0 0 0 .59-.19 1 1 0 0 0 .4-1L9.32 7.6 10.7 6.26a1 1 0 0 0-.56-1.71L8.25 4.28 7.4 2.56a1 1 0 0 0-1.8 0L4.75 4.28l-1.89.27A1 1 0 0 0 2.3 6.26zM29 12.5a1 1 0 0 0-.8-.67l-2.93-.45-1.31-2.8a1 1 0 0 0-1.82 0l-1.31 2.8-2.93.45a1 1 0 0 0-.8.67 1 1 0 0 0 .23 1l2.15 2.2-.51 3.12a1 1 0 0 0 1.47 1L23 18.43l2.61 1.45a1 1 0 0 0 .48.12 1 1 0 0 0 .58-.18 1 1 0 0 0 .41-1l-.51-3.12 2.15-2.2A1 1 0 0 0 29 12.5z"/><rect width="4" height="2" x="58" y="41"/><path d="M15,34H29.47l-10,6.15A1,1,0,0,0,19,41.27,1,1,0,0,0,20,42h9V40H23.53l10-6.15A1,1,0,0,0,34,32.73,1,1,0,0,0,33,32H15Z"/><rect width="2" height="2" x="11" y="32"/><rect width="6.79" height="2" x="51.21" y="56"/><path d="M47.48,8.69A29,29,0,0,0,40,4.08a1,1,0,0,0-1.24,1.46A27.7,27.7,0,0,1,36.6,38.22,27,27,0,0,1,3.45,45.28a1,1,0,0,0-1.17.19,1,1,0,0,0-.16,1.18A29.54,29.54,0,0,0,9,55.05a29.08,29.08,0,0,0,18.91,7c.86,0,1.73,0,2.61-.11A29.83,29.83,0,0,0,50.94,51.11,30.35,30.35,0,0,0,47.48,8.69Z"/></svg>