<svg width="34" height="57" viewBox="0 0 34 57" fill="none" xmlns="http://www.w3.org/2000/svg">
<path d="M5.77746 56.7581C6.49974 56.7601 7.21339 56.6271 7.86597 56.3686C8.51856 56.1102 9.09349 55.733 9.54853 55.2648L32.9002 31.0485C33.6113 30.3264 34 29.4205 34 28.4857C34 27.5508 33.6113 26.645 32.9002 25.9228L8.72663 1.70656C7.90599 0.882337 6.72675 0.364011 5.44833 0.265614C4.1699 0.167216 2.89702 0.496807 1.90969 1.18188C0.922359 1.86695 0.301468 2.85138 0.183601 3.91862C0.065731 4.98585 0.460541 6.04846 1.28118 6.87269L22.8923 28.5058L2.00639 50.139C1.41518 50.7314 1.03963 51.4528 0.924187 52.2178C0.808735 52.9829 0.95821 53.7595 1.35493 54.4558C1.75164 55.1522 2.37899 55.739 3.16275 56.147C3.9465 56.555 4.85386 56.7671 5.77746 56.7581Z" fill="white" fill-opacity="0.8"/>
</svg>
