<svg width="75" height="75" viewBox="0 0 75 75" fill="none" xmlns="http://www.w3.org/2000/svg">
<path d="M24.2876 7.62177L27.6501 6.54677C30.8032 5.54052 34.1719 7.16864 35.5219 10.3499L38.2094 16.6874C39.3782 19.4468 38.7282 22.6936 36.6032 24.7124L30.6813 30.3311C31.0469 33.6936 32.1782 37.003 34.0719 40.2593C35.8703 43.4097 38.2825 46.1672 41.1657 48.3686L48.2782 45.9936C50.972 45.0968 53.9094 46.1311 55.5594 48.5593L59.4126 54.2155C61.3344 57.0405 60.9876 60.9343 58.6032 63.328L56.0501 65.8936C53.5063 68.4468 49.8719 69.3749 46.5126 68.3249C38.5751 65.8499 31.2844 58.503 24.6282 46.2843C17.9626 34.0468 15.6094 23.6593 17.5719 15.1343C18.3969 11.5468 20.9501 8.68739 24.2876 7.62177Z" fill="#003F5A"/>
</svg>
