<svg width="35" height="57" viewBox="0 0 35 57" fill="none" xmlns="http://www.w3.org/2000/svg">
<path d="M28.7665 56.7581C28.0442 56.7601 27.3306 56.6271 26.678 56.3686C26.0254 56.1102 25.4505 55.733 24.9954 55.2648L1.64378 31.0485C0.932686 30.3264 0.543945 29.4205 0.543945 28.4857C0.543945 27.5508 0.932686 26.645 1.64378 25.9228L25.8173 1.70656C26.638 0.882337 27.8172 0.364011 29.0956 0.265614C30.374 0.167216 31.6469 0.496807 32.6343 1.18188C33.6216 1.86695 34.2425 2.85138 34.3603 3.91862C34.4782 4.98585 34.0834 6.04846 33.2628 6.87269L11.6516 28.5058L32.5376 50.139C33.1288 50.7314 33.5043 51.4528 33.6198 52.2178C33.7352 52.9829 33.5857 53.7595 33.189 54.4558C32.7923 55.1522 32.165 55.739 31.3812 56.147C30.5974 56.555 29.6901 56.7671 28.7665 56.7581Z" fill="white" fill-opacity="0.8"/>
</svg>
