<svg width="85" height="86" viewBox="0 0 85 86" fill="none" xmlns="http://www.w3.org/2000/svg">
<path d="M77.0312 21.7281C74.4912 22.8238 71.727 23.6123 68.8799 23.9195C71.8359 22.1633 74.0495 19.3889 75.1055 16.1167C72.3316 17.7668 69.2929 18.9239 66.124 19.5367C64.7996 18.1208 63.1978 16.9928 61.4183 16.223C59.6389 15.4533 57.72 15.0583 55.7812 15.0625C47.937 15.0625 41.6284 21.4209 41.6284 29.2237C41.6284 30.3194 41.7612 31.4151 41.9771 32.4693C30.2314 31.855 19.7559 26.2437 12.7915 17.6524C11.5225 19.8198 10.8575 22.2877 10.8657 24.7993C10.8657 29.7134 13.3643 34.0464 17.1743 36.5948C14.929 36.5063 12.7362 35.8892 10.7744 34.7935V34.9678C10.7744 41.8492 15.6387 47.5518 22.1216 48.8633C20.9043 49.1795 19.6522 49.3412 18.3945 49.3448C17.4731 49.3448 16.6016 49.2535 15.7217 49.1289C17.5146 54.7403 22.7358 58.816 28.9531 58.9488C24.0889 62.7588 17.9961 65 11.3804 65C10.1934 65 9.09766 64.9585 7.96045 64.8257C14.2358 68.8516 21.6816 71.1758 29.7002 71.1758C55.7314 71.1758 69.9756 49.6104 69.9756 30.8921C69.9756 30.2779 69.9756 29.6636 69.9341 29.0493C72.6899 27.0323 75.1055 24.5337 77.0312 21.7281Z" fill="#003F5A"/>
</svg>
